ffmpeg version git-2026-04-19-de18feb Copyright (c) 2000-2026 the FFmpeg developers
  built with gcc 9 (Ubuntu 9.4.0-1ubuntu1~20.04.2)
  configuration: --enable-shared --enable-gpl --enable-libx264
  libavutil      60. 30.100 / 60. 30.100
  libavcodec     62. 30.100 / 62. 30.100
  libavformat    62. 13.102 / 62. 13.102
  libavdevice    62.  4.100 / 62.  4.100
  libavfilter    11. 15.101 / 11. 15.101
  libswscale      9.  7.100 /  9.  7.100
  libswresample   6.  4.100 /  6.  4.100
[in#0/x11grab @ 0x55e3d9946c40] Stream #0: not enough frames to estimate rate; consider increasing probesize
Input #0, x11grab, from ':0.0+0,0':
  Duration: N/A, start: 1777398801.482480, bitrate: 3678192 kb/s
  Stream #0:0: Video: rawvideo (BGR[0] / 0x524742), bgr0, 2870x1602, 3678192 kb/s, 25 fps, 1000k tbr, 1000k tbn, start 1777398801.482480
Stream mapping:
  Stream #0:0 -> #0:0 (rawvideo (native) -> h264 (libx264))
[libx264 @ 0x55e3d9954f00] using cpu capabilities: MMX2 SSE2Fast SSSE3 SSE4.2 AVX FMA3 BMI2 AVX2
[libx264 @ 0x55e3d9954f00] profile High, level 5.0
[libx264 @ 0x55e3d9954f00] 264 - core 155 r2917 0a84d98 - H.264/MPEG-4 AVC codec - Copyleft 2003-2018 - http://www.videolan.org/x264.html - options: cabac=1 ref=1 deblock=1:0:0 analyse=0x3:0x113 me=hex subme=2 psy=1 psy_rd=1.00:0.00 mixed_ref=0 me_range=16 chroma_me=1 trellis=0 8x8dct=1 cqm=0 deadzone=21,11 fast_pskip=1 chroma_qp_offset=0 threads=6 lookahead_threads=2 sliced_threads=0 nr=0 decimate=1 interlaced=0 bluray_compat=0 constrained_intra=0 bframes=3 b_pyramid=2 b_adapt=1 b_bias=0 direct=1 weightb=1 open_gop=0 weightp=1 keyint=250 keyint_min=25 scenecut=40 intra_refresh=0 rc_lookahead=10 rc=crf mbtree=1 crf=23.0 qcomp=0.60 qpmin=0 qpmax=69 qpstep=4 ip_ratio=1.40 aq=1:1.00
Output #0, matroska, to '/home/lmy/catkin_ws/recordings_tmp/exp_10_point_v4/screen.mkv':
  Metadata:
    encoder         : Lavf62.13.102
  Stream #0:0: Video: h264 (H264 / 0x34363248), yuv420p(tv, progressive), 2870x1602, q=2-31, 25 fps, 1k tbn
    Metadata:
      encoder         : Lavc62.30.100 libx264
    Side data:
      CPB properties: bitrate max/min/avg: 0/0/0 buffer size: 0 vbv_delay: N/A
frame=    0 fps=0.0 q=0.0 size=       0KiB time=N/A bitrate=N/A speed=N/A elapsed=0:00:00.50    frame=    5 fps=5.0 q=28.0 size=       1KiB time=00:00:00.16 bitrate=  29.7kbits/s speed=0.16x elapsed=0:00:01.00    frame=   18 fps= 12 q=28.0 size=       1KiB time=00:00:00.68 bitrate=   7.0kbits/s speed=0.453x elapsed=0:00:01.50    frame=   31 fps= 15 q=28.0 size=       1KiB time=00:00:01.20 bitrate=   4.0kbits/s speed= 0.6x elapsed=0:00:02.00    frame=   43 fps= 17 q=28.0 size=       1KiB time=00:00:01.64 bitrate=   2.9kbits/s speed=0.656x elapsed=0:00:02.50    frame=   56 fps= 19 q=28.0 size=       1KiB time=00:00:02.16 bitrate=   2.2kbits/s speed=0.72x elapsed=0:00:03.00    frame=   68 fps= 19 q=28.0 size=       1KiB time=00:00:02.64 bitrate=   1.8kbits/s speed=0.754x elapsed=0:00:03.50    frame=   81 fps= 20 q=28.0 size=       1KiB time=00:00:03.16 bitrate=   1.5kbits/s speed=0.789x elapsed=0:00:04.00    frame=   93 fps= 21 q=28.0 size=       1KiB time=00:00:03.68 bitrate=   1.3kbits/s speed=0.817x elapsed=0:00:04.50    frame=  106 fps= 21 q=28.0 size=       1KiB time=00:00:04.16 bitrate=   1.1kbits/s speed=0.831x elapsed=0:00:05.00    frame=  118 fps= 21 q=28.0 size=       1KiB time=00:00:04.64 bitrate=   1.0kbits/s speed=0.843x elapsed=0:00:05.50    frame=  131 fps= 22 q=28.0 size=     168KiB time=00:00:05.20 bitrate= 263.9kbits/s speed=0.866x elapsed=0:00:06.00    frame=  144 fps= 22 q=28.0 size=     168KiB time=00:00:05.68 bitrate= 241.6kbits/s speed=0.873x elapsed=0:00:06.50    frame=  156 fps= 22 q=28.0 size=     168KiB time=00:00:06.20 bitrate= 221.3kbits/s speed=0.885x elapsed=0:00:07.00    frame=  168 fps= 22 q=28.0 size=     168KiB time=00:00:06.64 bitrate= 206.7kbits/s speed=0.885x elapsed=0:00:07.50    frame=  181 fps= 23 q=28.0 size=     168KiB time=00:00:07.16 bitrate= 191.6kbits/s speed=0.894x elapsed=0:00:08.00    frame=  193 fps= 23 q=28.0 size=     168KiB time=00:00:07.68 bitrate= 178.7kbits/s speed=0.903x elapsed=0:00:08.50    frame=  206 fps= 23 q=28.0 size=     168KiB time=00:00:08.16 bitrate= 168.2kbits/s speed=0.906x elapsed=0:00:09.00    frame=  218 fps= 23 q=28.0 size=     168KiB time=00:00:08.68 bitrate= 158.1kbits/s speed=0.913x elapsed=0:00:09.50    frame=  231 fps= 23 q=28.0 size=     168KiB time=00:00:09.16 bitrate= 149.8kbits/s speed=0.915x elapsed=0:00:10.00    frame=  243 fps= 23 q=28.0 size=     168KiB time=00:00:09.64 bitrate= 142.3kbits/s speed=0.917x elapsed=0:00:10.50    frame=  256 fps= 23 q=28.0 size=     256KiB time=00:00:10.20 bitrate= 205.6kbits/s speed=0.926x elapsed=0:00:11.00    frame=  269 fps= 23 q=28.0 size=     256KiB time=00:00:10.72 bitrate= 195.6kbits/s speed=0.931x elapsed=0:00:11.50    frame=  281 fps= 23 q=28.0 size=     256KiB time=00:00:11.20 bitrate= 187.2kbits/s speed=0.933x elapsed=0:00:12.00    frame=  293 fps= 23 q=28.0 size=     256KiB time=00:00:11.64 bitrate= 180.2kbits/s speed=0.93x elapsed=0:00:12.50    frame=  306 fps= 24 q=28.0 size=     256KiB time=00:00:12.16 bitrate= 172.5kbits/s speed=0.935x elapsed=0:00:13.01    frame=  319 fps= 24 q=28.0 size=     256KiB time=00:00:12.68 bitrate= 165.4kbits/s speed=0.939x elapsed=0:00:13.51    frame=  331 fps= 24 q=28.0 size=     256KiB time=00:00:13.20 bitrate= 158.9kbits/s speed=0.942x elapsed=0:00:14.01    frame=  344 fps= 24 q=28.0 size=     256KiB time=00:00:13.68 bitrate= 153.3kbits/s speed=0.943x elapsed=0:00:14.51    frame=  356 fps= 24 q=28.0 size=     256KiB time=00:00:14.16 bitrate= 148.1kbits/s speed=0.943x elapsed=0:00:15.01    frame=  368 fps= 24 q=28.0 size=     256KiB time=00:00:14.68 bitrate= 142.9kbits/s speed=0.946x elapsed=0:00:15.51    frame=  381 fps= 24 q=28.0 size=     256KiB time=00:00:15.16 bitrate= 138.3kbits/s speed=0.947x elapsed=0:00:16.01    frame=  394 fps= 24 q=28.0 size=     256KiB time=00:00:15.68 bitrate= 133.7kbits/s speed=0.95x elapsed=0:00:16.51    frame=  406 fps= 24 q=28.0 size=     256KiB time=00:00:16.20 bitrate= 129.5kbits/s speed=0.952x elapsed=0:00:17.01    frame=  419 fps= 24 q=28.0 size=     256KiB time=00:00:16.68 bitrate= 125.7kbits/s speed=0.952x elapsed=0:00:17.51    frame=  431 fps= 24 q=28.0 size=     256KiB time=00:00:17.20 bitrate= 121.9kbits/s speed=0.955x elapsed=0:00:18.01    frame=  444 fps= 24 q=28.0 size=     256KiB time=00:00:17.72 bitrate= 118.3kbits/s speed=0.957x elapsed=0:00:18.51    frame=  456 fps= 24 q=28.0 size=     256KiB time=00:00:18.20 bitrate= 115.2kbits/s speed=0.957x elapsed=0:00:19.01    frame=  469 fps= 24 q=28.0 size=     256KiB time=00:00:18.68 bitrate= 112.3kbits/s speed=0.957x elapsed=0:00:19.51    frame=  481 fps= 24 q=28.0 size=     256KiB time=00:00:19.20 bitrate= 109.2kbits/s speed=0.959x elapsed=0:00:20.01    frame=  494 fps= 24 q=28.0 size=     256KiB time=00:00:19.72 bitrate= 106.3kbits/s speed=0.961x elapsed=0:00:20.51    frame=  506 fps= 24 q=28.0 size=     512KiB time=00:00:20.20 bitrate= 207.6kbits/s speed=0.961x elapsed=0:00:21.02    frame=  519 fps= 24 q=28.0 size=     512KiB time=00:00:20.68 bitrate= 202.8kbits/s speed=0.961x elapsed=0:00:21.52    frame=  531 fps= 24 q=28.0 size=     512KiB time=00:00:21.20 bitrate= 197.8kbits/s speed=0.963x elapsed=0:00:22.02    frame=  544 fps= 24 q=28.0 size=     512KiB time=00:00:21.72 bitrate= 193.1kbits/s speed=0.964x elapsed=0:00:22.52    frame=  556 fps= 24 q=28.0 size=     512KiB time=00:00:22.16 bitrate= 189.3kbits/s speed=0.963x elapsed=0:00:23.02    frame=  569 fps= 24 q=28.0 size=     512KiB time=00:00:22.72 bitrate= 184.6kbits/s speed=0.966x elapsed=0:00:23.52    frame=  581 fps= 24 q=28.0 size=     512KiB time=00:00:23.16 bitrate= 181.1kbits/s speed=0.964x elapsed=0:00:24.02    frame=  594 fps= 24 q=28.0 size=     512KiB time=00:00:23.68 bitrate= 177.1kbits/s speed=0.966x elapsed=0:00:24.52    frame=  606 fps= 24 q=28.0 size=     512KiB time=00:00:24.20 bitrate= 173.3kbits/s speed=0.967x elapsed=0:00:25.02    frame=  619 fps= 24 q=28.0 size=     512KiB time=00:00:24.68 bitrate= 169.9kbits/s speed=0.967x elapsed=0:00:25.52    frame=  631 fps= 24 q=28.0 size=     768KiB time=00:00:25.24 bitrate= 249.3kbits/s speed=0.97x elapsed=0:00:26.02    frame=  644 fps= 24 q=28.0 size=     768KiB time=00:00:25.72 bitrate= 244.6kbits/s speed=0.97x elapsed=0:00:26.52    frame=  656 fps= 24 q=28.0 size=     768KiB time=00:00:26.20 bitrate= 240.1kbits/s speed=0.969x elapsed=0:00:27.02    frame=  669 fps= 24 q=28.0 size=     768KiB time=00:00:26.68 bitrate= 235.8kbits/s speed=0.969x elapsed=0:00:27.52    frame=  681 fps= 24 q=28.0 size=     768KiB time=00:00:27.20 bitrate= 231.3kbits/s speed=0.971x elapsed=0:00:28.02    frame=  694 fps= 24 q=28.0 size=     768KiB time=00:00:27.68 bitrate= 227.3kbits/s speed=0.97x elapsed=0:00:28.52    frame=  706 fps= 24 q=28.0 size=     768KiB time=00:00:28.20 bitrate= 223.1kbits/s speed=0.972x elapsed=0:00:29.02    frame=  719 fps= 24 q=28.0 size=     768KiB time=00:00:28.68 bitrate= 219.4kbits/s speed=0.971x elapsed=0:00:29.52    frame=  732 fps= 24 q=28.0 size=     768KiB time=00:00:29.20 bitrate= 215.5kbits/s speed=0.972x elapsed=0:00:30.02    frame=  744 fps= 24 q=28.0 size=     768KiB time=00:00:29.68 bitrate= 212.0kbits/s speed=0.972x elapsed=0:00:30.52    frame=  757 fps= 24 q=28.0 size=     768KiB time=00:00:30.24 bitrate= 208.1kbits/s speed=0.975x elapsed=0:00:31.02    frame=  769 fps= 24 q=28.0 size=     768KiB time=00:00:30.68 bitrate= 205.1kbits/s speed=0.973x elapsed=0:00:31.52    frame=  781 fps= 24 q=28.0 size=     768KiB time=00:00:31.20 bitrate= 201.6kbits/s speed=0.974x elapsed=0:00:32.02    frame=  794 fps= 24 q=28.0 size=     768KiB time=00:00:31.72 bitrate= 198.3kbits/s speed=0.975x elapsed=0:00:32.52    frame=  807 fps= 24 q=28.0 size=     768KiB time=00:00:32.24 bitrate= 195.1kbits/s speed=0.976x elapsed=0:00:33.02    frame=  819 fps= 24 q=28.0 size=     768KiB time=00:00:32.72 bitrate= 192.3kbits/s speed=0.976x elapsed=0:00:33.52    frame=  831 fps= 24 q=28.0 size=     768KiB time=00:00:33.16 bitrate= 189.7kbits/s speed=0.974x elapsed=0:00:34.02    frame=  844 fps= 24 q=28.0 size=     768KiB time=00:00:33.68 bitrate= 186.8kbits/s speed=0.975x elapsed=0:00:34.52    frame=  857 fps= 24 q=28.0 size=     768KiB time=00:00:34.24 bitrate= 183.7kbits/s speed=0.977x elapsed=0:00:35.03    frame=  869 fps= 24 q=28.0 size=     768KiB time=00:00:34.72 bitrate= 181.2kbits/s speed=0.977x elapsed=0:00:35.53    frame=  882 fps= 24 q=28.0 size=    1024KiB time=00:00:35.20 bitrate= 238.3kbits/s speed=0.977x elapsed=0:00:36.03    frame=  894 fps= 24 q=28.0 size=    1024KiB time=00:00:35.72 bitrate= 234.8kbits/s speed=0.978x elapsed=0:00:36.53    frame=  907 fps= 24 q=28.0 size=    1024KiB time=00:00:36.20 bitrate= 231.7kbits/s speed=0.977x elapsed=0:00:37.03    frame=  919 fps= 24 q=28.0 size=    1024KiB time=00:00:36.68 bitrate= 228.7kbits/s speed=0.977x elapsed=0:00:37.53    frame=  932 fps= 25 q=28.0 size=    1024KiB time=00:00:37.24 bitrate= 225.3kbits/s speed=0.979x elapsed=0:00:38.03    frame=  944 fps= 24 q=28.0 size=    1024KiB time=00:00:37.72 bitrate= 222.4kbits/s speed=0.979x elapsed=0:00:38.53    frame=  957 fps= 25 q=28.0 size=    1024KiB time=00:00:38.24 bitrate= 219.4kbits/s speed=0.98x elapsed=0:00:39.03    frame=  969 fps= 25 q=28.0 size=    1024KiB time=00:00:38.72 bitrate= 216.6kbits/s speed=0.979x elapsed=0:00:39.53    frame=  982 fps= 25 q=28.0 size=    1024KiB time=00:00:39.20 bitrate= 214.0kbits/s speed=0.979x elapsed=0:00:40.03    frame=  994 fps= 25 q=28.0 size=    1024KiB time=00:00:39.72 bitrate= 211.2kbits/s speed=0.98x elapsed=0:00:40.54    frame= 1007 fps= 25 q=28.0 size=    1024KiB time=00:00:40.24 bitrate= 208.5kbits/s speed=0.98x elapsed=0:00:41.04    frame= 1019 fps= 25 q=28.0 size=    1024KiB time=00:00:40.68 bitrate= 206.2kbits/s speed=0.979x elapsed=0:00:41.54    frame= 1032 fps= 25 q=28.0 size=    1024KiB time=00:00:41.20 bitrate= 203.6kbits/s speed=0.98x elapsed=0:00:42.04    frame= 1044 fps= 25 q=28.0 size=    1024KiB time=00:00:41.68 bitrate= 201.3kbits/s speed=0.98x elapsed=0:00:42.54    frame= 1057 fps= 25 q=28.0 size=    1024KiB time=00:00:42.24 bitrate= 198.6kbits/s speed=0.981x elapsed=0:00:43.04    frame= 1069 fps= 25 q=28.0 size=    1024KiB time=00:00:42.72 bitrate= 196.4kbits/s speed=0.981x elapsed=0:00:43.54    frame= 1082 fps= 25 q=28.0 size=    1024KiB time=00:00:43.24 bitrate= 194.0kbits/s speed=0.982x elapsed=0:00:44.04    frame= 1094 fps= 25 q=28.0 size=    1024KiB time=00:00:43.72 bitrate= 191.9kbits/s speed=0.982x elapsed=0:00:44.54    frame= 1107 fps= 25 q=28.0 size=    1024KiB time=00:00:44.24 bitrate= 189.6kbits/s speed=0.982x elapsed=0:00:45.04    frame= 1119 fps= 25 q=28.0 size=    1024KiB time=00:00:44.68 bitrate= 187.7kbits/s speed=0.981x elapsed=0:00:45.54    frame= 1132 fps= 25 q=28.0 size=    1280KiB time=00:00:45.20 bitrate= 232.0kbits/s speed=0.982x elapsed=0:00:46.04    frame= 1144 fps= 25 q=28.0 size=    1280KiB time=00:00:45.68 bitrate= 229.5kbits/s speed=0.981x elapsed=0:00:46.54    frame= 1157 fps= 25 q=28.0 size=    1280KiB time=00:00:46.20 bitrate= 227.0kbits/s speed=0.982x elapsed=0:00:47.04    frame= 1169 fps= 25 q=28.0 size=    1280KiB time=00:00:46.72 bitrate= 224.4kbits/s speed=0.983x elapsed=0:00:47.54    frame= 1182 fps= 25 q=28.0 size=    1280KiB time=00:00:47.24 bitrate= 222.0kbits/s speed=0.983x elapsed=0:00:48.04    frame= 1195 fps= 25 q=28.0 size=    1280KiB time=00:00:47.72 bitrate= 219.7kbits/s speed=0.983x elapsed=0:00:48.54    frame= 1207 fps= 25 q=28.0 size=    1280KiB time=00:00:48.20 bitrate= 217.5kbits/s speed=0.983x elapsed=0:00:49.04    frame= 1220 fps= 25 q=28.0 size=    1280KiB time=00:00:48.72 bitrate= 215.2kbits/s speed=0.983x elapsed=0:00:49.54    frame= 1232 fps= 25 q=28.0 size=    1280KiB time=00:00:49.20 bitrate= 213.1kbits/s speed=0.983x elapsed=0:00:50.04    frame= 1245 fps= 25 q=28.0 size=    1280KiB time=00:00:49.72 bitrate= 210.9kbits/s speed=0.984x elapsed=0:00:50.54    frame= 1257 fps= 25 q=28.0 size=    1280KiB time=00:00:50.20 bitrate= 208.9kbits/s speed=0.983x elapsed=0:00:51.04    frame= 1270 fps= 25 q=28.0 size=    1280KiB time=00:00:50.72 bitrate= 206.7kbits/s speed=0.984x elapsed=0:00:51.55    frame= 1282 fps= 25 q=28.0 size=    1280KiB time=00:00:51.20 bitrate= 204.8kbits/s speed=0.984x elapsed=0:00:52.05    frame= 1295 fps= 25 q=28.0 size=    1280KiB time=00:00:51.72 bitrate= 202.7kbits/s speed=0.984x elapsed=0:00:52.55    frame= 1307 fps= 25 q=28.0 size=    1280KiB time=00:00:52.20 bitrate= 200.9kbits/s speed=0.984x elapsed=0:00:53.05    frame= 1319 fps= 25 q=28.0 size=    1280KiB time=00:00:52.72 bitrate= 198.9kbits/s speed=0.984x elapsed=0:00:53.55    frame= 1332 fps= 25 q=28.0 size=    1280KiB time=00:00:53.24 bitrate= 197.0kbits/s speed=0.985x elapsed=0:00:54.05    frame= 1344 fps= 25 q=28.0 size=    1280KiB time=00:00:53.72 bitrate= 195.2kbits/s speed=0.985x elapsed=0:00:54.55    frame= 1357 fps= 25 q=28.0 size=    1280KiB time=00:00:54.20 bitrate= 193.5kbits/s speed=0.984x elapsed=0:00:55.05    frame= 1369 fps= 25 q=28.0 size=    1280KiB time=00:00:54.72 bitrate= 191.6kbits/s speed=0.985x elapsed=0:00:55.55    frame= 1382 fps= 25 q=28.0 size=    1536KiB time=00:00:55.24 bitrate= 227.8kbits/s speed=0.985x elapsed=0:00:56.05    frame= 1395 fps= 25 q=28.0 size=    1536KiB time=00:00:55.72 bitrate= 225.8kbits/s speed=0.985x elapsed=0:00:56.55    frame= 1407 fps= 25 q=28.0 size=    1536KiB time=00:00:56.20 bitrate= 223.9kbits/s speed=0.985x elapsed=0:00:57.05    frame= 1419 fps= 25 q=28.0 size=    1536KiB time=00:00:56.68 bitrate= 222.0kbits/s speed=0.985x elapsed=0:00:57.55    frame= 1432 fps= 25 q=28.0 size=    1536KiB time=00:00:57.20 bitrate= 220.0kbits/s speed=0.985x elapsed=0:00:58.05    frame= 1445 fps= 25 q=28.0 size=    1536KiB time=00:00:57.72 bitrate= 218.0kbits/s speed=0.986x elapsed=0:00:58.55    frame= 1457 fps= 25 q=28.0 size=    1536KiB time=00:00:58.20 bitrate= 216.2kbits/s speed=0.985x elapsed=0:00:59.06    frame= 1470 fps= 25 q=28.0 size=    1536KiB time=00:00:58.72 bitrate= 214.3kbits/s speed=0.986x elapsed=0:00:59.56    frame= 1482 fps= 25 q=28.0 size=    1536KiB time=00:00:59.20 bitrate= 212.5kbits/s speed=0.986x elapsed=0:01:00.06    frame= 1495 fps= 25 q=28.0 size=    1536KiB time=00:00:59.72 bitrate= 210.7kbits/s speed=0.986x elapsed=0:01:00.56    frame= 1507 fps= 25 q=28.0 size=    1792KiB time=00:01:00.20 bitrate= 243.9kbits/s speed=0.986x elapsed=0:01:01.06    frame= 1520 fps= 25 q=28.0 size=    1792KiB time=00:01:00.76 bitrate= 241.6kbits/s speed=0.987x elapsed=0:01:01.56    frame= 1532 fps= 25 q=28.0 size=    1792KiB time=00:01:01.20 bitrate= 239.9kbits/s speed=0.986x elapsed=0:01:02.06    frame= 1545 fps= 25 q=28.0 size=    1792KiB time=00:01:01.72 bitrate= 237.8kbits/s speed=0.986x elapsed=0:01:02.56    frame= 1557 fps= 25 q=28.0 size=    1792KiB time=00:01:02.24 bitrate= 235.9kbits/s speed=0.987x elapsed=0:01:03.06    frame= 1570 fps= 25 q=28.0 size=    1792KiB time=00:01:02.76 bitrate= 233.9kbits/s speed=0.987x elapsed=0:01:03.56    frame= 1583 fps= 25 q=28.0 size=    1792KiB time=00:01:03.28 bitrate= 232.0kbits/s speed=0.988x elapsed=0:01:04.06    frame= 1595 fps= 25 q=28.0 size=    1792KiB time=00:01:03.72 bitrate= 230.4kbits/s speed=0.987x elapsed=0:01:04.56    frame= 1607 fps= 25 q=28.0 size=    1792KiB time=00:01:04.20 bitrate= 228.7kbits/s speed=0.987x elapsed=0:01:05.06    frame= 1620 fps= 25 q=28.0 size=    1792KiB time=00:01:04.72 bitrate= 226.8kbits/s speed=0.987x elapsed=0:01:05.56    frame= 1633 fps= 25 q=28.0 size=    2048KiB time=00:01:05.24 bitrate= 257.2kbits/s speed=0.987x elapsed=0:01:06.06    frame= 1645 fps= 25 q=28.0 size=    2048KiB time=00:01:05.72 bitrate= 255.3kbits/s speed=0.987x elapsed=0:01:06.57    frame= 1657 fps= 25 q=28.0 size=    2048KiB time=00:01:06.20 bitrate= 253.4kbits/s speed=0.987x elapsed=0:01:07.07    frame= 1670 fps= 25 q=28.0 size=    2048KiB time=00:01:06.76 bitrate= 251.3kbits/s speed=0.988x elapsed=0:01:07.57    frame= 1683 fps= 25 q=28.0 size=    2048KiB time=00:01:07.24 bitrate= 249.5kbits/s speed=0.988x elapsed=0:01:08.07    frame= 1695 fps= 25 q=28.0 size=    2048KiB time=00:01:07.76 bitrate= 247.6kbits/s speed=0.988x elapsed=0:01:08.57    frame= 1708 fps= 25 q=28.0 size=    2048KiB time=00:01:08.28 bitrate= 245.7kbits/s speed=0.989x elapsed=0:01:09.07    frame= 1720 fps= 25 q=28.0 size=    2048KiB time=00:01:08.76 bitrate= 244.0kbits/s speed=0.988x elapsed=0:01:09.57    frame= 1732 fps= 25 q=28.0 size=    2048KiB time=00:01:09.24 bitrate= 242.3kbits/s speed=0.988x elapsed=0:01:10.07    frame= 1745 fps= 25 q=28.0 size=    2048KiB time=00:01:09.72 bitrate= 240.6kbits/s speed=0.988x elapsed=0:01:10.57    frame= 1757 fps= 25 q=28.0 size=    2048KiB time=00:01:10.20 bitrate= 239.0kbits/s speed=0.988x elapsed=0:01:11.07    frame= 1770 fps= 25 q=28.0 size=    2048KiB time=00:01:10.72 bitrate= 237.2kbits/s speed=0.988x elapsed=0:01:11.57    frame= 1783 fps= 25 q=28.0 size=    2048KiB time=00:01:11.24 bitrate= 235.5kbits/s speed=0.988x elapsed=0:01:12.07    [out#0/matroska @ 0x55e3d9953500] Error writing trailer: Immediate exit requested
[out#0/matroska @ 0x55e3d9953500] Error closing file: Immediate exit requested
[out#0/matroska @ 0x55e3d9953500] video:2672KiB audio:0KiB subtitle:0KiB other streams:0KiB global headers:0KiB muxing overhead: unknown
frame= 1815 fps= 25 q=-1.0 Lsize=    2048KiB time=00:01:12.52 bitrate= 231.3kbits/s speed=0.998x elapsed=0:01:12.69    
[libx264 @ 0x55e3d9954f00] frame I:8     Avg QP:11.73  size:117120
[libx264 @ 0x55e3d9954f00] frame P:458   Avg QP:17.32  size:  2566
[libx264 @ 0x55e3d9954f00] frame B:1349  Avg QP:23.88  size:   462
[libx264 @ 0x55e3d9954f00] consecutive B-frames:  0.8%  0.0%  0.7% 98.5%
[libx264 @ 0x55e3d9954f00] mb I  I16..4: 88.9%  1.8%  9.3%
[libx264 @ 0x55e3d9954f00] mb P  I16..4:  0.3%  0.1%  0.1%  P16..4:  0.3%  0.2%  0.1%  0.0%  0.0%    skip:99.0%
[libx264 @ 0x55e3d9954f00] mb B  I16..4:  0.0%  0.0%  0.0%  B16..8:  0.3%  0.1%  0.0%  direct: 0.0%  skip:99.6%  L0:45.2% L1:48.3% BI: 6.5%
[libx264 @ 0x55e3d9954f00] 8x8 transform intra:4.2% inter:2.6%
[libx264 @ 0x55e3d9954f00] coded y,uvDC,uvAC intra: 16.0% 22.2% 18.3% inter: 0.1% 0.1% 0.0%
[libx264 @ 0x55e3d9954f00] i16 v,h,dc,p: 69% 29%  2%  0%
[libx264 @ 0x55e3d9954f00] i8 v,h,dc,ddl,ddr,vr,hd,vl,hu: 15% 19% 60%  1%  1%  2%  1%  0%  1%
[libx264 @ 0x55e3d9954f00] i4 v,h,dc,ddl,ddr,vr,hd,vl,hu: 34% 27% 19%  2%  3%  5%  3%  4%  3%
[libx264 @ 0x55e3d9954f00] i8c dc,h,v,p: 60% 30%  9%  0%
[libx264 @ 0x55e3d9954f00] Weighted P-Frames: Y:0.0% UV:0.0%
[libx264 @ 0x55e3d9954f00] kb/s:301.29
Exiting normally, received signal 2.
